# xmcd
#
# Track frame offsets: 
#        150
#        14219
#        32668
#        44090
#        59801
#        74238
#        102334
#        123071
#        135981
#        159531
#        170218
#        187242
#
# Disc length: 2706 seconds
#
# Revision: 0
# Processed by: cddbd v1.5.2PL0 Copyright (c) Steve Scherf et al.
# Submitted via: ExactAudioCopy v0.99pb4
#
DISCID=bf0a900c
DTITLE=John Gregory - A Man For All Season
DYEAR=1974
DGENRE=Jazz
TTITLE0=Jerusalem
TTITLE1=Air
TTITLE2=Hungarian Raphsody
TTITLE3=She
TTITLE4=Girl With The Flaxen Hair
TTITLE5=Kunbaya
TTITLE6=Thanksgiving Day Parade
TTITLE7=Jetstream
TTITLE8=Prologue And Be
TTITLE9=After The Goldrush
TTITLE10=Jaguar
TTITLE11=Earthshaker
EXTD=
EXTT0=
EXTT1=
EXTT2=
EXTT3=
EXTT4=
EXTT5=
EXTT6=
EXTT7=
EXTT8=
EXTT9=
EXTT10=
EXTT11=
PLAYORDER=
